<svg width="62" height="58" viewBox="0 0 62 58" fill="none" xmlns="http://www.w3.org/2000/svg">
<path d="M27.3145 3.48787C28.476 0.0782471 33.2982 0.0782461 34.4597 3.48787L39.1957 17.3911C39.7166 18.9203 41.1529 19.9483 42.7683 19.9483H57.7009C61.4001 19.9483 62.8911 24.7176 59.8507 26.8246L48.0816 34.9807C46.6959 35.941 46.1151 37.7039 46.6587 39.2998L51.2257 52.7068C52.3996 56.1529 48.4956 59.0995 45.5033 57.0259L33.0369 48.3865C31.7438 47.4904 30.0304 47.4904 28.7373 48.3865L16.2709 57.0259C13.2786 59.0995 9.3746 56.1529 10.5485 52.7068L15.1155 39.2998C15.6591 37.7039 15.0783 35.941 13.6926 34.9807L1.9235 26.8246C-1.11694 24.7176 0.374104 19.9483 4.07329 19.9483H19.0059C20.6213 19.9483 22.0576 18.9203 22.5785 17.3911L27.3145 3.48787Z" fill="#E9CC59"/>
</svg>
